<?xml version="1.0" encoding="UTF-8" standalone="no"?>
<svg width="15px" height="15px" viewBox="0 0 15 15" version="1.1" xmlns="http://www.w3.org/2000/svg" xmlns:xlink="http://www.w3.org/1999/xlink">
    <!-- Generator: Sketch 3.8.3 (29802) - http://www.bohemiancoding.com/sketch -->
    <title>icon_support</title>
    <desc>Created with Sketch.</desc>
    <defs>
        <polygon id="path-1" points="10.8457 11 0 11 0 0.1562 10.8457 0.1562"></polygon>
    </defs>
    <g id="Symbols" stroke="none" stroke-width="1" fill="none" fill-rule="evenodd">
        <g id="icon_support">
            <g id="Group">
                <rect id="Rectangle-4" fill-opacity="0" fill="#FFFFFF" x="0" y="0" width="15" height="15"></rect>
                <g id="Page-1" transform="translate(2.000000, 1.000000)">
                    <path d="M6.1406,5.6993 C6.0486,5.6073 5.9396,5.5333 5.8166,5.4783 C5.5646,5.3673 5.2676,5.3713 5.0216,5.4783 C4.9026,5.5333 4.7946,5.6093 4.7066,5.7013 C4.6176,5.7933 4.5446,5.9003 4.4926,6.0193 C4.4376,6.1443 4.4106,6.2793 4.4106,6.4183 C4.4106,6.5583 4.4376,6.6913 4.4926,6.8163 C4.5446,6.9373 4.6196,7.0453 4.7086,7.1353 C4.7986,7.2243 4.9046,7.2973 5.0216,7.3513 C5.1466,7.4063 5.2796,7.4333 5.4196,7.4333 C5.5586,7.4333 5.6916,7.4063 5.8166,7.3513 C5.9376,7.2993 6.0446,7.2263 6.1366,7.1383 C6.2306,7.0473 6.3046,6.9373 6.3596,6.8163 C6.4136,6.6913 6.4416,6.5583 6.4416,6.4183 C6.4416,6.2793 6.4136,6.1443 6.3596,6.0213 C6.3066,5.9003 6.2326,5.7913 6.1406,5.6993" id="Fill-1" fill="#221F20"></path>
                    <g id="Group-5" transform="translate(0.000000, 0.843800)">
                        <mask id="mask-2" fill="white">
                            <use xlink:href="#path-1"></use>
                        </mask>
                        <g id="Clip-4"></g>
                        <path d="M8.4707,5.5742 C8.4707,6.0132 8.3947,6.4282 8.2407,6.8032 C8.0857,7.1792 7.8707,7.5102 7.5997,7.7852 C7.3257,8.0622 6.9997,8.2832 6.6287,8.4412 C5.8847,8.7602 4.9377,8.7602 4.2047,8.4412 C3.8357,8.2832 3.5117,8.0622 3.2387,7.7852 C2.9647,7.5082 2.7497,7.1782 2.5977,6.8032 C2.4437,6.4282 2.3667,6.0132 2.3667,5.5742 C2.3667,5.1382 2.4437,4.7282 2.5977,4.3532 C2.7497,3.9762 2.9667,3.6462 3.2387,3.3712 C3.5117,3.0942 3.8357,2.8732 4.2047,2.7152 C4.5747,2.5542 4.9827,2.4742 5.4197,2.4742 C5.8517,2.4742 6.2597,2.5562 6.6307,2.7152 C6.9997,2.8732 7.3257,3.0942 7.5997,3.3712 C7.8707,3.6462 8.0857,3.9762 8.2407,4.3532 C8.3947,4.7282 8.4707,5.1382 8.4707,5.5742 M10.5957,4.8732 L9.9397,4.8732 C9.8807,4.5022 9.7797,4.1462 9.6347,3.8122 C9.4917,3.4802 9.3147,3.1702 9.1017,2.8862 L9.5757,2.4082 C9.6737,2.3102 9.6717,2.1522 9.5757,2.0542 L8.9397,1.4202 C8.8417,1.3222 8.6857,1.3222 8.5857,1.4182 L8.0897,1.9102 C7.8067,1.7112 7.4977,1.5412 7.1677,1.4062 C6.8377,1.2692 6.4867,1.1762 6.1207,1.1212 L6.1207,0.4062 C6.1207,0.2692 6.0077,0.1562 5.8707,0.1562 L4.9667,0.1562 C4.8297,0.1562 4.7167,0.2692 4.7167,0.4062 L4.7167,1.1212 C4.3497,1.1742 3.9957,1.2672 3.6657,1.4022 C3.3397,1.5352 3.0317,1.7032 2.7477,1.9022 L2.2577,1.4182 C2.1597,1.3222 2.0037,1.3222 1.9067,1.4202 L1.2697,2.0542 C1.1717,2.1522 1.1717,2.3082 1.2677,2.4062 L1.7367,2.8862 C1.5257,3.1702 1.3437,3.4802 1.1997,3.8102 C1.0527,4.1442 0.9497,4.5022 0.8927,4.8732 L0.2497,4.8732 C0.1117,4.8732 -0.0003,4.9862 -0.0003,5.1232 L-0.0003,6.0252 C-0.0003,6.1642 0.1117,6.2752 0.2497,6.2752 L0.8907,6.2752 C0.9497,6.6502 1.0527,7.0102 1.1997,7.3472 C1.3437,7.6762 1.5237,7.9862 1.7347,8.2672 L1.2697,8.7342 C1.2227,8.7812 1.1957,8.8442 1.1957,8.9102 C1.1957,8.9762 1.2227,9.0412 1.2697,9.0882 L1.9067,9.7222 C2.0037,9.8202 2.1617,9.8202 2.2597,9.7222 L2.7367,9.2462 C3.0237,9.4452 3.3337,9.6152 3.6617,9.7502 C3.9917,9.8862 4.3457,9.9822 4.7167,10.0392 L4.7167,10.7502 C4.7167,10.8862 4.8297,11.0002 4.9667,11.0002 L5.8707,11.0002 C6.0077,11.0002 6.1207,10.8862 6.1207,10.7502 L6.1207,10.0392 C6.4907,9.9822 6.8457,9.8862 7.1757,9.7502 C7.5057,9.6152 7.8167,9.4432 8.1037,9.2402 L8.5857,9.7222 C8.6837,9.8202 8.8417,9.8202 8.9397,9.7222 L9.5757,9.0882 C9.6227,9.0412 9.6487,8.9762 9.6487,8.9102 C9.6487,8.8442 9.6207,8.7792 9.5747,8.7322 L9.1037,8.2672 C9.3147,7.9842 9.4917,7.6762 9.6347,7.3452 C9.7797,7.0102 9.8827,6.6502 9.9397,6.2752 L10.5957,6.2752 C10.7347,6.2752 10.8457,6.1642 10.8457,6.0252 L10.8457,5.1232 C10.8457,4.9862 10.7347,4.8732 10.5957,4.8732" id="Fill-3" fill="#221F20" mask="url(#mask-2)"></path>
                    </g>
                </g>
            </g>
        </g>
    </g>
</svg>